<mxfile host="app.diagrams.net" modified="2024-04-07T20:50:34.295Z" agent="Mozilla/5.0 (Windows NT 10.0; Win64; x64) AppleWebKit/537.36 (KHTML, like Gecko) Chrome/123.0.0.0 Safari/537.36" etag="eYz8D46ysYN6sfUZC2YC" version="24.2.2" type="device">
  <diagram name="Page-1" id="F9eBlfl37LeODlIGQpws">
    <mxGraphModel dx="3728" dy="2267" grid="1" gridSize="10" guides="1" tooltips="1" connect="1" arrows="1" fold="1" page="1" pageScale="1" pageWidth="827" pageHeight="1169" math="0" shadow="0">
      <root>
        <mxCell id="0" />
        <mxCell id="1" parent="0" />
        <mxCell id="zKV9qMBa-mxKUznAKJzo-1" value="" style="rounded=1;whiteSpace=wrap;html=1;movable=0;resizable=0;rotatable=0;deletable=0;editable=0;locked=1;connectable=0;" vertex="1" parent="1">
          <mxGeometry x="-1555" y="-290" width="1330" height="1000" as="geometry" />
        </mxCell>
        <mxCell id="zKV9qMBa-mxKUznAKJzo-2" value="Click n&#39; Build" style="rounded=1;whiteSpace=wrap;html=1;fontSize=20;" vertex="1" parent="1">
          <mxGeometry x="-970" y="-290" width="160" height="40" as="geometry" />
        </mxCell>
        <mxCell id="zKV9qMBa-mxKUznAKJzo-48" style="edgeStyle=orthogonalEdgeStyle;rounded=0;orthogonalLoop=1;jettySize=auto;html=1;exitX=1;exitY=0.3333333333333333;exitDx=0;exitDy=0;exitPerimeter=0;entryX=0;entryY=0.5;entryDx=0;entryDy=0;" edge="1" parent="1" source="zKV9qMBa-mxKUznAKJzo-3" target="zKV9qMBa-mxKUznAKJzo-11">
          <mxGeometry relative="1" as="geometry" />
        </mxCell>
        <mxCell id="zKV9qMBa-mxKUznAKJzo-3" value="Registerd User" style="shape=umlActor;verticalLabelPosition=bottom;verticalAlign=top;html=1;outlineConnect=0;fontSize=19;" vertex="1" parent="1">
          <mxGeometry x="-1490" y="110" width="80" height="160" as="geometry" />
        </mxCell>
        <mxCell id="zKV9qMBa-mxKUznAKJzo-47" style="edgeStyle=orthogonalEdgeStyle;rounded=0;orthogonalLoop=1;jettySize=auto;html=1;exitX=0;exitY=0.3333333333333333;exitDx=0;exitDy=0;exitPerimeter=0;entryX=1;entryY=0.5;entryDx=0;entryDy=0;" edge="1" parent="1" source="zKV9qMBa-mxKUznAKJzo-4" target="zKV9qMBa-mxKUznAKJzo-11">
          <mxGeometry relative="1" as="geometry">
            <Array as="points">
              <mxPoint x="-370" y="160" />
              <mxPoint x="-580" y="160" />
              <mxPoint x="-580" y="60" />
            </Array>
          </mxGeometry>
        </mxCell>
        <mxCell id="zKV9qMBa-mxKUznAKJzo-4" value="&lt;font style=&quot;font-size: 19px;&quot;&gt;Guest&lt;/font&gt;" style="shape=umlActor;verticalLabelPosition=bottom;verticalAlign=top;html=1;outlineConnect=0;" vertex="1" parent="1">
          <mxGeometry x="-370" y="110" width="80" height="160" as="geometry" />
        </mxCell>
        <mxCell id="zKV9qMBa-mxKUznAKJzo-63" style="edgeStyle=orthogonalEdgeStyle;rounded=0;orthogonalLoop=1;jettySize=auto;html=1;" edge="1" parent="1" source="zKV9qMBa-mxKUznAKJzo-11">
          <mxGeometry relative="1" as="geometry">
            <mxPoint x="-890" y="130" as="targetPoint" />
          </mxGeometry>
        </mxCell>
        <mxCell id="zKV9qMBa-mxKUznAKJzo-11" value="&lt;p style=&quot;margin-left:8.5pt;mso-add-space:auto;&lt;br/&gt;text-indent:-8.5pt;mso-list:l0 level1 lfo1;tab-stops:list 8.5pt&quot; class=&quot;MsoListParagraph&quot;&gt;&lt;b&gt;&lt;span style=&quot;font-size: 16pt; line-height: 115%;&quot;&gt;Δημιουργία &lt;/span&gt;&lt;/b&gt;&lt;b&gt;&lt;span style=&quot;font-size: 16pt; line-height: 115%;&quot; lang=&quot;EN-US&quot;&gt;Build&lt;/span&gt;&lt;/b&gt;&lt;/p&gt;" style="ellipse;whiteSpace=wrap;html=1;fontSize=19;" vertex="1" parent="1">
          <mxGeometry x="-990" y="20" width="200" height="80" as="geometry" />
        </mxCell>
        <mxCell id="zKV9qMBa-mxKUznAKJzo-39" style="edgeStyle=orthogonalEdgeStyle;rounded=0;orthogonalLoop=1;jettySize=auto;html=1;entryX=0;entryY=0;entryDx=0;entryDy=0;" edge="1" parent="1" source="zKV9qMBa-mxKUznAKJzo-12" target="zKV9qMBa-mxKUznAKJzo-11">
          <mxGeometry relative="1" as="geometry">
            <Array as="points">
              <mxPoint x="-1140" />
              <mxPoint x="-961" />
            </Array>
          </mxGeometry>
        </mxCell>
        <mxCell id="zKV9qMBa-mxKUznAKJzo-12" value="&lt;p style=&quot;margin-left:8.5pt;mso-add-space:auto;&lt;br/&gt;text-indent:-8.5pt;mso-list:l0 level1 lfo1;tab-stops:list 8.5pt&quot; class=&quot;MsoListParagraph&quot;&gt;&lt;span style=&quot;font-size: 21.3333px;&quot;&gt;&lt;b&gt;Beginner Mode&lt;/b&gt;&lt;/span&gt;&lt;/p&gt;" style="ellipse;whiteSpace=wrap;html=1;fontSize=19;" vertex="1" parent="1">
          <mxGeometry x="-1240" y="-200" width="200" height="80" as="geometry" />
        </mxCell>
        <mxCell id="zKV9qMBa-mxKUznAKJzo-41" style="edgeStyle=orthogonalEdgeStyle;rounded=0;orthogonalLoop=1;jettySize=auto;html=1;entryX=0.5;entryY=0;entryDx=0;entryDy=0;" edge="1" parent="1" source="zKV9qMBa-mxKUznAKJzo-13" target="zKV9qMBa-mxKUznAKJzo-11">
          <mxGeometry relative="1" as="geometry" />
        </mxCell>
        <mxCell id="zKV9qMBa-mxKUznAKJzo-13" value="&lt;p style=&quot;margin-left:8.5pt;mso-add-space:auto;&lt;br/&gt;text-indent:-8.5pt;mso-list:l0 level1 lfo1;tab-stops:list 8.5pt&quot; class=&quot;MsoListParagraph&quot;&gt;&lt;span style=&quot;font-size: 21.3333px;&quot;&gt;&lt;b&gt;Normal Mode&lt;/b&gt;&lt;/span&gt;&lt;/p&gt;" style="ellipse;whiteSpace=wrap;html=1;fontSize=19;" vertex="1" parent="1">
          <mxGeometry x="-990" y="-200" width="200" height="80" as="geometry" />
        </mxCell>
        <mxCell id="zKV9qMBa-mxKUznAKJzo-42" style="edgeStyle=orthogonalEdgeStyle;rounded=0;orthogonalLoop=1;jettySize=auto;html=1;entryX=1;entryY=0;entryDx=0;entryDy=0;" edge="1" parent="1" source="zKV9qMBa-mxKUznAKJzo-14" target="zKV9qMBa-mxKUznAKJzo-11">
          <mxGeometry relative="1" as="geometry">
            <Array as="points">
              <mxPoint x="-670" />
              <mxPoint x="-819" />
            </Array>
          </mxGeometry>
        </mxCell>
        <mxCell id="zKV9qMBa-mxKUznAKJzo-14" value="&lt;p style=&quot;margin-left:8.5pt;mso-add-space:auto;&lt;br/&gt;text-indent:-8.5pt;mso-list:l0 level1 lfo1;tab-stops:list 8.5pt&quot; class=&quot;MsoListParagraph&quot;&gt;&lt;span style=&quot;font-size: 21.3333px;&quot;&gt;&lt;b&gt;Expert Mode&lt;/b&gt;&lt;/span&gt;&lt;/p&gt;" style="ellipse;whiteSpace=wrap;html=1;fontSize=19;" vertex="1" parent="1">
          <mxGeometry x="-770" y="-200" width="200" height="80" as="geometry" />
        </mxCell>
        <mxCell id="zKV9qMBa-mxKUznAKJzo-18" value="(include)" style="text;html=1;align=center;verticalAlign=middle;whiteSpace=wrap;rounded=0;fontSize=20;" vertex="1" parent="1">
          <mxGeometry x="-960" y="-110" width="60" height="30" as="geometry" />
        </mxCell>
        <mxCell id="zKV9qMBa-mxKUznAKJzo-19" value="(include)" style="text;html=1;align=center;verticalAlign=middle;whiteSpace=wrap;rounded=0;fontSize=20;" vertex="1" parent="1">
          <mxGeometry x="-1120" y="-30" width="60" height="30" as="geometry" />
        </mxCell>
        <mxCell id="zKV9qMBa-mxKUznAKJzo-20" value="(include)" style="text;html=1;align=center;verticalAlign=middle;whiteSpace=wrap;rounded=0;fontSize=20;" vertex="1" parent="1">
          <mxGeometry x="-740" y="-30" width="60" height="30" as="geometry" />
        </mxCell>
        <mxCell id="zKV9qMBa-mxKUznAKJzo-24" value="&lt;p style=&quot;margin-left:8.5pt;mso-add-space:auto;&lt;br/&gt;text-indent:-8.5pt;mso-list:l0 level1 lfo1;tab-stops:list 8.5pt&quot; class=&quot;MsoListParagraph&quot;&gt;&lt;span style=&quot;font-size: 21.3333px;&quot;&gt;&lt;b&gt;Order Build&lt;/b&gt;&lt;/span&gt;&lt;/p&gt;" style="ellipse;whiteSpace=wrap;html=1;fontSize=19;" vertex="1" parent="1">
          <mxGeometry x="-960" y="210" width="140" height="60" as="geometry" />
        </mxCell>
        <mxCell id="zKV9qMBa-mxKUznAKJzo-65" style="edgeStyle=orthogonalEdgeStyle;rounded=0;orthogonalLoop=1;jettySize=auto;html=1;exitX=1;exitY=0;exitDx=0;exitDy=0;entryX=1;entryY=1;entryDx=0;entryDy=0;" edge="1" parent="1" source="zKV9qMBa-mxKUznAKJzo-35" target="zKV9qMBa-mxKUznAKJzo-61">
          <mxGeometry relative="1" as="geometry">
            <Array as="points">
              <mxPoint x="-790" y="319" />
              <mxPoint x="-790" y="181" />
            </Array>
          </mxGeometry>
        </mxCell>
        <mxCell id="zKV9qMBa-mxKUznAKJzo-35" value="&lt;p style=&quot;margin-left:8.5pt;mso-add-space:auto;&lt;br/&gt;text-indent:-8.5pt;mso-list:l0 level1 lfo1;tab-stops:list 8.5pt&quot; class=&quot;MsoListParagraph&quot;&gt;&lt;span style=&quot;font-size: 21.3333px;&quot;&gt;&lt;b&gt;Share&lt;/b&gt;&lt;/span&gt;&lt;/p&gt;" style="ellipse;whiteSpace=wrap;html=1;fontSize=19;align=center;" vertex="1" parent="1">
          <mxGeometry x="-960" y="310" width="140" height="60" as="geometry" />
        </mxCell>
        <mxCell id="zKV9qMBa-mxKUznAKJzo-70" style="edgeStyle=orthogonalEdgeStyle;rounded=0;orthogonalLoop=1;jettySize=auto;html=1;exitX=1;exitY=1;exitDx=0;exitDy=0;entryX=0;entryY=0;entryDx=0;entryDy=0;" edge="1" parent="1" source="zKV9qMBa-mxKUznAKJzo-36" target="zKV9qMBa-mxKUznAKJzo-35">
          <mxGeometry relative="1" as="geometry">
            <Array as="points">
              <mxPoint x="-1050" y="319" />
            </Array>
          </mxGeometry>
        </mxCell>
        <mxCell id="zKV9qMBa-mxKUznAKJzo-36" value="&lt;p style=&quot;margin-left:8.5pt;mso-add-space:auto;&lt;br/&gt;text-indent:-8.5pt;mso-list:l0 level1 lfo1;tab-stops:list 8.5pt&quot; class=&quot;MsoListParagraph&quot;&gt;&lt;span style=&quot;font-size: 21.3333px;&quot;&gt;&lt;b&gt;Save Build&lt;/b&gt;&lt;/span&gt;&lt;/p&gt;" style="ellipse;whiteSpace=wrap;html=1;fontSize=19;" vertex="1" parent="1">
          <mxGeometry x="-1170" y="220" width="140" height="60" as="geometry" />
        </mxCell>
        <mxCell id="zKV9qMBa-mxKUznAKJzo-44" value="(include)" style="text;html=1;align=center;verticalAlign=middle;whiteSpace=wrap;rounded=0;fontSize=20;" vertex="1" parent="1">
          <mxGeometry x="-1030" y="290" width="60" height="30" as="geometry" />
        </mxCell>
        <mxCell id="zKV9qMBa-mxKUznAKJzo-49" value="" style="endArrow=classic;html=1;rounded=0;entryX=0;entryY=0.5;entryDx=0;entryDy=0;endFill=1;" edge="1" parent="1" target="zKV9qMBa-mxKUznAKJzo-35">
          <mxGeometry width="50" height="50" relative="1" as="geometry">
            <mxPoint x="-1200" y="140" as="sourcePoint" />
            <mxPoint x="-1200" y="330" as="targetPoint" />
            <Array as="points">
              <mxPoint x="-1200" y="340" />
            </Array>
          </mxGeometry>
        </mxCell>
        <mxCell id="zKV9qMBa-mxKUznAKJzo-50" value="" style="endArrow=classic;html=1;rounded=0;" edge="1" parent="1">
          <mxGeometry width="50" height="50" relative="1" as="geometry">
            <mxPoint x="-580" y="140" as="sourcePoint" />
            <mxPoint x="-820" y="340" as="targetPoint" />
            <Array as="points">
              <mxPoint x="-580" y="340" />
            </Array>
          </mxGeometry>
        </mxCell>
        <mxCell id="zKV9qMBa-mxKUznAKJzo-53" value="&lt;p style=&quot;margin-left:8.5pt;mso-add-space:auto;&lt;br/&gt;text-indent:-8.5pt;mso-list:l0 level1 lfo1;tab-stops:list 8.5pt&quot; class=&quot;MsoListParagraph&quot;&gt;&lt;span style=&quot;font-size: 21.3333px;&quot;&gt;&lt;b&gt;Edit&lt;/b&gt;&lt;/span&gt;&lt;/p&gt;" style="ellipse;whiteSpace=wrap;html=1;fontSize=19;align=center;" vertex="1" parent="1">
          <mxGeometry x="-960" y="380" width="140" height="60" as="geometry" />
        </mxCell>
        <mxCell id="zKV9qMBa-mxKUznAKJzo-54" value="" style="endArrow=classic;html=1;rounded=0;entryX=0;entryY=0.5;entryDx=0;entryDy=0;" edge="1" parent="1" target="zKV9qMBa-mxKUznAKJzo-53">
          <mxGeometry width="50" height="50" relative="1" as="geometry">
            <mxPoint x="-1200" y="250" as="sourcePoint" />
            <mxPoint x="-1040" y="305" as="targetPoint" />
            <Array as="points">
              <mxPoint x="-1200" y="410" />
            </Array>
          </mxGeometry>
        </mxCell>
        <mxCell id="zKV9qMBa-mxKUznAKJzo-62" style="edgeStyle=orthogonalEdgeStyle;rounded=0;orthogonalLoop=1;jettySize=auto;html=1;" edge="1" parent="1" source="zKV9qMBa-mxKUznAKJzo-61" target="zKV9qMBa-mxKUznAKJzo-24">
          <mxGeometry relative="1" as="geometry" />
        </mxCell>
        <mxCell id="zKV9qMBa-mxKUznAKJzo-71" style="edgeStyle=orthogonalEdgeStyle;rounded=0;orthogonalLoop=1;jettySize=auto;html=1;exitX=0;exitY=1;exitDx=0;exitDy=0;entryX=1;entryY=0;entryDx=0;entryDy=0;" edge="1" parent="1" source="zKV9qMBa-mxKUznAKJzo-61" target="zKV9qMBa-mxKUznAKJzo-36">
          <mxGeometry relative="1" as="geometry" />
        </mxCell>
        <mxCell id="zKV9qMBa-mxKUznAKJzo-61" value="&lt;p style=&quot;margin-left:8.5pt;mso-add-space:auto;&lt;br/&gt;text-indent:-8.5pt;mso-list:l0 level1 lfo1;tab-stops:list 8.5pt&quot; class=&quot;MsoListParagraph&quot;&gt;&lt;span style=&quot;font-size: 21.3333px;&quot;&gt;&lt;b&gt;View Build&lt;/b&gt;&lt;/span&gt;&lt;/p&gt;" style="ellipse;whiteSpace=wrap;html=1;fontSize=19;" vertex="1" parent="1">
          <mxGeometry x="-960" y="130" width="140" height="60" as="geometry" />
        </mxCell>
        <mxCell id="zKV9qMBa-mxKUznAKJzo-66" value="" style="endArrow=classic;html=1;rounded=0;entryX=1;entryY=0.5;entryDx=0;entryDy=0;" edge="1" parent="1" target="zKV9qMBa-mxKUznAKJzo-61">
          <mxGeometry width="50" height="50" relative="1" as="geometry">
            <mxPoint x="-580" y="160" as="sourcePoint" />
            <mxPoint x="-940" y="180" as="targetPoint" />
          </mxGeometry>
        </mxCell>
        <mxCell id="zKV9qMBa-mxKUznAKJzo-67" value="" style="endArrow=classic;html=1;rounded=0;entryX=0;entryY=0.5;entryDx=0;entryDy=0;" edge="1" parent="1" target="zKV9qMBa-mxKUznAKJzo-61">
          <mxGeometry width="50" height="50" relative="1" as="geometry">
            <mxPoint x="-1200" y="160" as="sourcePoint" />
            <mxPoint x="-940" y="180" as="targetPoint" />
          </mxGeometry>
        </mxCell>
        <mxCell id="zKV9qMBa-mxKUznAKJzo-68" value="(include)" style="text;html=1;align=center;verticalAlign=middle;whiteSpace=wrap;rounded=0;fontSize=20;" vertex="1" parent="1">
          <mxGeometry x="-880" y="100" width="60" height="30" as="geometry" />
        </mxCell>
        <mxCell id="zKV9qMBa-mxKUznAKJzo-69" value="(include)" style="text;html=1;align=center;verticalAlign=middle;whiteSpace=wrap;rounded=0;fontSize=20;" vertex="1" parent="1">
          <mxGeometry x="-780" y="230" width="60" height="30" as="geometry" />
        </mxCell>
        <mxCell id="zKV9qMBa-mxKUznAKJzo-72" value="(extend)" style="text;html=1;align=center;verticalAlign=middle;whiteSpace=wrap;rounded=0;fontSize=20;" vertex="1" parent="1">
          <mxGeometry x="-1030" y="175" width="60" height="30" as="geometry" />
        </mxCell>
        <mxCell id="zKV9qMBa-mxKUznAKJzo-73" value="&lt;p style=&quot;margin-left:8.5pt;mso-add-space:auto;&lt;br/&gt;text-indent:-8.5pt;mso-list:l0 level1 lfo1;tab-stops:list 8.5pt&quot; class=&quot;MsoListParagraph&quot;&gt;&lt;span style=&quot;font-size: 21.3333px;&quot;&gt;&lt;b&gt;Rate Build&lt;/b&gt;&lt;/span&gt;&lt;/p&gt;" style="ellipse;whiteSpace=wrap;html=1;fontSize=19;align=center;" vertex="1" parent="1">
          <mxGeometry x="-960" y="470" width="140" height="60" as="geometry" />
        </mxCell>
        <mxCell id="zKV9qMBa-mxKUznAKJzo-76" style="edgeStyle=orthogonalEdgeStyle;rounded=0;orthogonalLoop=1;jettySize=auto;html=1;entryX=0;entryY=1;entryDx=0;entryDy=0;" edge="1" parent="1" source="zKV9qMBa-mxKUznAKJzo-74" target="zKV9qMBa-mxKUznAKJzo-73">
          <mxGeometry relative="1" as="geometry" />
        </mxCell>
        <mxCell id="zKV9qMBa-mxKUznAKJzo-74" value="&lt;p style=&quot;margin-left:8.5pt;mso-add-space:auto;&lt;br/&gt;text-indent:-8.5pt;mso-list:l0 level1 lfo1;tab-stops:list 8.5pt&quot; class=&quot;MsoListParagraph&quot;&gt;&lt;span style=&quot;font-size: 21.3333px;&quot;&gt;&lt;b&gt;Like / Dislike&lt;/b&gt;&lt;/span&gt;&lt;/p&gt;" style="ellipse;whiteSpace=wrap;html=1;fontSize=19;align=center;" vertex="1" parent="1">
          <mxGeometry x="-1180" y="540" width="150" height="60" as="geometry" />
        </mxCell>
        <mxCell id="zKV9qMBa-mxKUznAKJzo-78" style="edgeStyle=orthogonalEdgeStyle;rounded=0;orthogonalLoop=1;jettySize=auto;html=1;entryX=1;entryY=1;entryDx=0;entryDy=0;" edge="1" parent="1" source="zKV9qMBa-mxKUznAKJzo-75" target="zKV9qMBa-mxKUznAKJzo-73">
          <mxGeometry relative="1" as="geometry" />
        </mxCell>
        <mxCell id="zKV9qMBa-mxKUznAKJzo-75" value="&lt;p style=&quot;margin-left:8.5pt;mso-add-space:auto;&lt;br/&gt;text-indent:-8.5pt;mso-list:l0 level1 lfo1;tab-stops:list 8.5pt&quot; class=&quot;MsoListParagraph&quot;&gt;&lt;span style=&quot;font-size: 21.3333px;&quot;&gt;&lt;b&gt;Comment&lt;/b&gt;&lt;/span&gt;&lt;/p&gt;" style="ellipse;whiteSpace=wrap;html=1;fontSize=19;align=center;" vertex="1" parent="1">
          <mxGeometry x="-750" y="540" width="140" height="60" as="geometry" />
        </mxCell>
        <mxCell id="zKV9qMBa-mxKUznAKJzo-79" value="(include)" style="text;html=1;align=center;verticalAlign=middle;whiteSpace=wrap;rounded=0;fontSize=20;" vertex="1" parent="1">
          <mxGeometry x="-820" y="540" width="60" height="30" as="geometry" />
        </mxCell>
        <mxCell id="zKV9qMBa-mxKUznAKJzo-82" value="" style="endArrow=classic;html=1;rounded=0;entryX=0;entryY=0.5;entryDx=0;entryDy=0;" edge="1" parent="1" target="zKV9qMBa-mxKUznAKJzo-73">
          <mxGeometry width="50" height="50" relative="1" as="geometry">
            <mxPoint x="-1200" y="410" as="sourcePoint" />
            <mxPoint x="-680" y="180" as="targetPoint" />
            <Array as="points">
              <mxPoint x="-1200" y="500" />
            </Array>
          </mxGeometry>
        </mxCell>
        <mxCell id="zKV9qMBa-mxKUznAKJzo-83" value="(include)" style="text;html=1;align=center;verticalAlign=middle;whiteSpace=wrap;rounded=0;fontSize=20;" vertex="1" parent="1">
          <mxGeometry x="-1010" y="550" width="60" height="30" as="geometry" />
        </mxCell>
      </root>
    </mxGraphModel>
  </diagram>
</mxfile>
